# xmcd
#
# Track frame offsets: 
#        182
#        15447
#        27155
#
# Disc length: 602 seconds
#
# Revision: 0
# Processed by: cddbd v1.5.2PL0 Copyright (c) Steve Scherf et al.
# Submitted via: ExactAudioCopy v0.99pb5
#
DISCID=14025803
DTITLE=My Vitriol - Cemented Shoes
DYEAR=2000
DGENRE=Alt. Rock
TTITLE0=Cemented Shoes
TTITLE1=Wait A Minute
TTITLE2=All Of Me
EXTD=
EXTT0=
EXTT1=
EXTT2=
PLAYORDER=
